# xmcd
#
# Track frame offsets:
#	150
#	14542
#	27440
#	40312
#	54826
#	67142
#	78967
#	94534
#	108232
#	121214
#	133550
#	148793
#	163639
#	176670
#
# Disc length: 2609 seconds
#
# Revision: 0
# Processed by: cddbd v1.5.1PL2 Copyright (c) Steve Scherf et al.
# Submitted via: audiograbber 1.83.01
#
DISCID=b80a2f0e
DTITLE=Savannah - New Road (...Tribute To The Sixties)
DYEAR=2001
DGENRE=Sixties
TTITLE0=The Last Time (...The Rolling Stones)
TTITLE1=Paperback Writer (...The Beatles)
TTITLE2=I'm A Believer (...The Monkees)
TTITLE3=To Love Somebody (...The Beegees)
TTITLE4=Eight Days A Week (...The Beatles)
TTITLE5=Love's Gonna Live Here (...Buck Owens and the Buckaroos)
TTITLE6=Travelling Light (...Cliff Richard)
TTITLE7=Little Sister (...Elvis Presley)
TTITLE8=Dream Baby (...Roy Orbison)
TTITLE9=That's Alright Mama (...Elvis Presley)
TTITLE10=Crying In The Rain (...The Everly Brothers)
TTITLE11=The Wanderer (...Dion)
TTITLE12=Do You Wanna Dance (...Cliff Richard and the Shadows)
TTITLE13=Sweet Dreams (...Patsy Cline)
EXTD=
EXTT0=
EXTT1=
EXTT2=
EXTT3=
EXTT4=
EXTT5=
EXTT6=
EXTT7=
EXTT8=
EXTT9=
EXTT10=
EXTT11=
EXTT12=
EXTT13=
PLAYORDER=
